<?xml version="1.0" encoding="utf-8"?>
<!-- Generator: Adobe Illustrator 25.4.1, SVG Export Plug-In . SVG Version: 6.00 Build 0)  -->
<svg version="1.0" id="Layer_1" xmlns="http://www.w3.org/2000/svg" xmlns:xlink="http://www.w3.org/1999/xlink" x="0px" y="0px"
	 viewBox="0 0 645 219" enable-background="new 0 0 645 219" xml:space="preserve">
<g id="logo">
	<g>
		<path id="Shape" fill="#636363" d="M130,133.1H92.5c-0.6,0-1,0.4-1,1v13.5c0,0.6,0.4,1,1,1h19.6v23.2c-3.3,1-8.5,1.6-14.5,1.6
			c-22.3,0-36.2-13.5-36.2-35.1s14.5-35,37.8-35c10.6,0,16.9,2,21.3,3.8l2.1,0.9c0.3,0.1,0.5,0.1,0.8,0c0.3-0.1,0.4-0.3,0.5-0.6
			l4.3-13.5c0.2-0.5-0.1-1-0.5-1.2l-1.6-0.7c-5-2.2-14.6-4.6-26.6-4.6c-34.5,0-57.9,20.7-58,51.5c0,15,5.5,28.6,15.1,37.2
			c10,8.9,23.1,13.2,40,13.2c13.4,0,24.9-2.9,32.2-5.3l1.3-0.4c0.4-0.1,0.7-0.5,0.7-0.9v-48.5C131,133.5,130.6,133.1,130,133.1z"/>
		<path id="Shape_00000005239799074620794850000012193984853479387796_" fill="#636363" d="M227.9,172.3h-42.4v-83c0-0.6-0.4-1-1-1
			h-17.2c-0.6,0-1,0.4-1,1v97.9c0,0.6,0.4,1,1,1h60.6c0.6,0,1-0.4,1-1v-14C228.9,172.8,228.5,172.3,227.9,172.3z"/>
		<path id="Shape_00000118395212265497136790000008866930637928758714_" fill="#636363" d="M328.2,79.3c-5.9,0-10.3,4.4-10.3,10.3
			c0,5.8,4.3,10.2,10,10.2c3.1,0,5.9-1.1,7.8-3.1c1.8-1.9,2.8-4.4,2.7-7.1C338.4,83.6,334.1,79.3,328.2,79.3z"/>
		<path id="Shape_00000182513036604917832190000001491582425805670553_" fill="#636363" d="M336.9,114.9h-17.3c-0.6,0-1,0.4-1,1
			v71.4c0,0.6,0.4,1,1,1h17.3c0.6,0,1-0.4,1-1v-71.4C337.9,115.3,337.5,114.9,336.9,114.9z"/>
		<path id="Shape_00000163792743011570182670000007453163622901922480_" fill="#636363" d="M446.9,88.4h-16.4c-0.6,0-1,0.4-1,1v41.3
			c0,8,0.1,16.6,0.5,25.7c-3.5-6.1-7.5-12.4-12-19l-33.1-48.6c-0.2-0.3-0.5-0.4-0.8-0.4h-17.5c-0.6,0-1,0.4-1,1v97.9
			c0,0.6,0.4,1,1,1H383c0.6,0,1-0.4,1-1v-42.1c0-10.5-0.1-19-0.4-26.9c3.6,6.2,8,13.1,13.3,20.9l32.8,48.7c0.2,0.3,0.5,0.4,0.8,0.4
			h16.4c0.6,0,1-0.4,1-1V89.4C447.9,88.8,447.5,88.4,446.9,88.4z"/>
		<path id="Shape_00000040553167893523804400000014906849295659000710_" fill="#636363" d="M507.6,113.4
			c-21.9,0-37.2,16.2-37.2,39.3c0,22.5,15.3,37,38.9,37c12.3,0,20.7-2.4,25.5-4.4l1.5-0.6c0.5-0.2,0.7-0.7,0.6-1.2l-3.2-12.5
			c-0.1-0.3-0.3-0.5-0.5-0.6c-0.3-0.1-0.6-0.1-0.8,0l-2.2,0.9c-4.3,1.7-9.6,3.3-19,3.3c-6,0-20-1.8-21.8-17.7h49.8
			c0.5,0,0.9-0.4,1-0.9l0.3-2.2c0.2-1.3,0.4-3.1,0.4-5.5C540.8,132.1,532.1,113.4,507.6,113.4z M489.9,142.1
			c1.2-4.5,5.2-14.2,16.7-14.2c4.4,0,8,1.2,10.5,3.6c3.3,3.1,4.4,7.6,4.7,10.6H489.9z"/>
		<path id="Shape_00000025408175597661100820000014608901148348043660_" fill="#636363" d="M602.5,114.9h-18v-19
			c0-0.3-0.1-0.6-0.4-0.8c-0.2-0.2-0.6-0.3-0.9-0.2l-17,4.2c-0.4,0.1-0.8,0.5-0.8,1v14.8H555c-0.6,0-1,0.4-1,1V129c0,0.6,0.4,1,1,1
			h10.4v34c0,9.4,1.9,15.7,5.9,19.5c3.8,4,9.5,6.1,16.6,6.1c5.1,0,9.7-0.7,12.9-1.9l1.3-0.5c0.4-0.2,0.7-0.6,0.6-1l-0.8-12.9
			c0-0.3-0.2-0.6-0.4-0.7c-0.2-0.2-0.5-0.2-0.8-0.2l-2.4,0.6c-1.3,0.3-3.6,0.7-6.9,0.7c-3.5,0-6.9-0.8-6.9-10.3v-33.6h18
			c0.6,0,1-0.4,1-1v-13.1C603.5,115.3,603,114.9,602.5,114.9z"/>
		<circle id="Oval" fill="#636363" cx="267.7" cy="139.1" r="10.6"/>
		<path id="Shape_00000155829361788739132980000000648499442485013439_" fill="#636363" d="M371.6,45.7c1.3-1.3,1-3.4-0.6-4.3
			l-1.9-1.1c-12.4-7.2-26.6-11-40.9-11c-14.4,0-28.5,3.8-41,11l-1.8,1.1c-1.6,0.9-1.9,3.1-0.6,4.3l5.8,5.8c0.9,0.9,2.3,1.1,3.3,0.4
			c10.4-6,22.2-9.2,34.2-9.2s23.8,3.2,34.2,9.2h0.1c1.1,0.6,2.5,0.4,3.3-0.4L371.6,45.7z"/>
		<path id="Shape_00000168111631056861286100000010120685010532519049_" fill="#636363" d="M353.4,59.5c-7.7-4.2-16.4-6.5-25.3-6.5
			c-8.8,0-17.5,2.2-25.2,6.4c-0.7,0.4-1.2,1.2-1.3,2c0,0.6,0.2,1.3,0.6,1.7l6.4,6.4c0.8,0.8,2.1,1.1,3.1,0.6
			c5.1-2.4,10.7-3.6,16.3-3.6c5.7,0,11.3,1.3,16.4,3.6c1.1,0.5,2.3,0.2,3.1-0.6l6.2-6.2c0.5-0.5,0.7-1.2,0.7-1.9v-0.2
			C354.5,60.6,354.1,59.9,353.4,59.5z"/>
	</g>
</g>
</svg>
